<svg width="140" height="18" viewBox="0 0 140 18" fill="none" xmlns="http://www.w3.org/2000/svg">
<path d="M10.3804 2.87639L10 1.70557L9.61958 2.87639L8.13778 7.43688H3.3426H2.11153L3.10749 8.16049L6.98687 10.979L5.50508 15.5395L5.12466 16.7103L6.12062 15.9867L10 13.1682L13.8794 15.9867L14.8753 16.7103L14.4949 15.5395L13.0131 10.979L16.8925 8.16049L17.8885 7.43688H16.6574H11.8622L10.3804 2.87639Z" fill="#FFED00" stroke="black" stroke-width="0.8"/>
<path d="M40.3804 2.87639L40 1.70557L39.6196 2.87639L38.1378 7.43688H33.3426H32.1115L33.1075 8.16049L36.9869 10.979L35.5051 15.5395L35.1247 16.7103L36.1206 15.9867L40 13.1682L43.8794 15.9867L44.8753 16.7103L44.4949 15.5395L43.0131 10.979L46.8925 8.16049L47.8885 7.43688H46.6574H41.8622L40.3804 2.87639Z" fill="#FFED00" stroke="black" stroke-width="0.8"/>
<path d="M70.3804 2.87639L70 1.70557L69.6196 2.87639L68.1378 7.43688H63.3426H62.1115L63.1075 8.16049L66.9869 10.979L65.5051 15.5395L65.1247 16.7103L66.1206 15.9867L70 13.1682L73.8794 15.9867L74.8753 16.7103L74.4949 15.5395L73.0131 10.979L76.8925 8.16049L77.8885 7.43688H76.6574H71.8622L70.3804 2.87639Z" fill="#FFED00" stroke="black" stroke-width="0.8"/>
<path d="M100.38 2.87639L100 1.70557L99.6196 2.87639L98.1378 7.43688H93.3426H92.1115L93.1075 8.16049L96.9869 10.979L95.5051 15.5395L95.1247 16.7103L96.1206 15.9867L100 13.1682L103.879 15.9867L104.875 16.7103L104.495 15.5395L103.013 10.979L106.893 8.16049L107.888 7.43688H106.657H101.862L100.38 2.87639Z" fill="#FFED00" stroke="black" stroke-width="0.8"/>
<path d="M130.38 2.87639L130 1.70557L129.62 2.87639L128.138 7.43688H123.343H122.112L123.107 8.16049L126.987 10.979L125.505 15.5395L125.125 16.7103L126.121 15.9867L130 13.1682L133.879 15.9867L134.875 16.7103L134.495 15.5395L133.013 10.979L136.893 8.16049L137.888 7.43688H136.657H131.862L130.38 2.87639Z" fill="#FFED00" stroke="black" stroke-width="0.8"/>
</svg>
