<svg width="25" height="25" viewBox="0 0 25 25" fill="none" xmlns="http://www.w3.org/2000/svg">
<g clip-path="url(#clip0_2362_6277)">
<path d="M12.5 23.4375C9.59919 23.4375 6.8172 22.2852 4.76602 20.234C2.71484 18.1828 1.5625 15.4008 1.5625 12.5C1.5625 9.59919 2.71484 6.8172 4.76602 4.76602C6.8172 2.71484 9.59919 1.5625 12.5 1.5625C15.4008 1.5625 18.1828 2.71484 20.234 4.76602C22.2852 6.8172 23.4375 9.59919 23.4375 12.5C23.4375 15.4008 22.2852 18.1828 20.234 20.234C18.1828 22.2852 15.4008 23.4375 12.5 23.4375ZM12.5 25C15.8152 25 18.9946 23.683 21.3388 21.3388C23.683 18.9946 25 15.8152 25 12.5C25 9.18479 23.683 6.00537 21.3388 3.66117C18.9946 1.31696 15.8152 0 12.5 0C9.18479 0 6.00537 1.31696 3.66117 3.66117C1.31696 6.00537 0 9.18479 0 12.5C0 15.8152 1.31696 18.9946 3.66117 21.3388C6.00537 23.683 9.18479 25 12.5 25Z" fill="black"/>
<path d="M17.1408 7.76539C17.1297 7.77618 17.1192 7.78766 17.1095 7.79977L11.683 14.7138L8.41266 11.442C8.19051 11.235 7.89669 11.1223 7.5931 11.1276C7.2895 11.133 6.99984 11.256 6.78513 11.4707C6.57042 11.6854 6.44743 11.975 6.44208 12.2786C6.43672 12.5822 6.54941 12.8761 6.75641 13.0982L10.8908 17.2341C11.0022 17.3453 11.1348 17.4329 11.2808 17.4917C11.4267 17.5505 11.583 17.5793 11.7404 17.5764C11.8977 17.5735 12.0529 17.5389 12.1966 17.4748C12.3403 17.4106 12.4695 17.3181 12.5767 17.2029L18.8142 9.40602C19.0266 9.1831 19.1427 8.88554 19.1375 8.57769C19.1322 8.26983 19.006 7.9764 18.7862 7.76085C18.5663 7.5453 18.2705 7.42494 17.9626 7.42579C17.6547 7.42664 17.3595 7.54863 17.1408 7.76539Z" fill="black"/>
</g>
<defs>
<clipPath id="clip0_2362_6277">
<rect width="25" height="25" fill="white"/>
</clipPath>
</defs>
</svg>
