<svg width="22" height="21" viewBox="0 0 22 21" fill="none" xmlns="http://www.w3.org/2000/svg">
<g filter="url(#filter0_d_566_4826)">
<path fill-rule="evenodd" clip-rule="evenodd" d="M4 8.00063C4 7.86802 4.05268 7.74085 4.14645 7.64708C4.24021 7.55331 4.36739 7.50063 4.5 7.50063H16.293L13.146 4.35463C13.0521 4.26075 12.9994 4.13341 12.9994 4.00063C12.9994 3.86786 13.0521 3.74052 13.146 3.64663C13.2399 3.55274 13.3672 3.5 13.5 3.5C13.6328 3.5 13.7601 3.55274 13.854 3.64663L17.854 7.64663C17.9006 7.69308 17.9375 7.74825 17.9627 7.809C17.9879 7.86974 18.0009 7.93486 18.0009 8.00063C18.0009 8.0664 17.9879 8.13152 17.9627 8.19226C17.9375 8.25301 17.9006 8.30819 17.854 8.35463L13.854 12.3546C13.7601 12.4485 13.6328 12.5013 13.5 12.5013C13.3672 12.5013 13.2399 12.4485 13.146 12.3546C13.0521 12.2607 12.9994 12.1334 12.9994 12.0006C12.9994 11.8679 13.0521 11.7405 13.146 11.6466L16.293 8.50063H4.5C4.36739 8.50063 4.24021 8.44795 4.14645 8.35419C4.05268 8.26042 4 8.13324 4 8.00063Z" fill="black"/>
</g>
<defs>
<filter id="filter0_d_566_4826" x="-1" y="0" width="24" height="24" filterUnits="userSpaceOnUse" color-interpolation-filters="sRGB">
<feFlood flood-opacity="0" result="BackgroundImageFix"/>
<feColorMatrix in="SourceAlpha" type="matrix" values="0 0 0 0 0 0 0 0 0 0 0 0 0 0 0 0 0 0 127 0" result="hardAlpha"/>
<feOffset dy="4"/>
<feGaussianBlur stdDeviation="2"/>
<feComposite in2="hardAlpha" operator="out"/>
<feColorMatrix type="matrix" values="0 0 0 0 0 0 0 0 0 0 0 0 0 0 0 0 0 0 0.25 0"/>
<feBlend mode="normal" in2="BackgroundImageFix" result="effect1_dropShadow_566_4826"/>
<feBlend mode="normal" in="SourceGraphic" in2="effect1_dropShadow_566_4826" result="shape"/>
</filter>
</defs>
</svg>
