<svg width="25" height="25" viewBox="0 0 25 25" fill="none" xmlns="http://www.w3.org/2000/svg">
<path d="M0 0.892881C0 0.656074 0.101305 0.428967 0.281628 0.261519C0.461951 0.0940711 0.706523 0 0.961538 0H24.0385C24.2935 0 24.538 0.0940711 24.7184 0.261519C24.8987 0.428967 25 0.656074 25 0.892881V4.46441C25 4.68461 24.9123 4.89702 24.7538 5.06085L16.3462 13.7361V22.322C16.346 22.5094 16.2824 22.6919 16.1644 22.8438C16.0463 22.9957 15.8798 23.1093 15.6885 23.1685L9.91923 24.9542C9.77476 24.9989 9.62092 25.0111 9.47039 24.9898C9.31985 24.9685 9.17692 24.9142 9.05336 24.8316C8.92981 24.7489 8.82916 24.6402 8.7597 24.5144C8.69024 24.3886 8.65396 24.2492 8.65385 24.1078V13.7361L0.246154 5.06085C0.087708 4.89702 4.25969e-05 4.68461 0 4.46441V0.892881Z" fill="black"/>
</svg>
