<svg width="20" height="24" viewBox="0 0 20 24" fill="none" xmlns="http://www.w3.org/2000/svg">
<path d="M9.99951 24C10.7573 24 11.484 23.6839 12.0198 23.1214C12.5556 22.5588 12.8567 21.7958 12.8567 21.0002H7.14237C7.14237 21.7958 7.44339 22.5588 7.97921 23.1214C8.51502 23.6839 9.24175 24 9.99951 24ZM9.99951 2.87815L8.86094 3.11964C7.56945 3.39593 6.40856 4.13224 5.57473 5.20396C4.7409 6.27568 4.28537 7.61697 4.28523 9.00082C4.28523 9.94277 4.0938 12.2961 3.62951 14.6135C3.40094 15.7639 3.09237 16.9624 2.68237 18.0003H17.3167C16.9067 16.9624 16.5995 15.7654 16.3695 14.6135C15.9052 12.2961 15.7138 9.94277 15.7138 9.00082C15.7133 7.61723 15.2576 6.27629 14.4238 5.20488C13.59 4.13347 12.4293 3.39738 11.1381 3.12114L9.99951 2.87666V2.87815ZM18.8852 18.0003C19.2038 18.6708 19.5724 19.2018 19.9995 19.5002H-0.000488281C0.426655 19.2018 0.795226 18.6708 1.1138 18.0003C2.39951 15.3005 2.85665 10.3207 2.85665 9.00082C2.85665 5.37102 5.3138 2.34118 8.57808 1.64972C8.55814 1.44116 8.58006 1.23053 8.64242 1.03142C8.70477 0.832297 8.80619 0.649112 8.94012 0.493673C9.07404 0.338234 9.23752 0.213993 9.41999 0.128962C9.60246 0.0439318 9.79988 0 9.99951 0C10.1991 0 10.3966 0.0439318 10.579 0.128962C10.7615 0.213993 10.925 0.338234 11.0589 0.493673C11.1928 0.649112 11.2943 0.832297 11.3566 1.03142C11.419 1.23053 11.4409 1.44116 11.4209 1.64972C13.0356 1.99455 14.4872 2.91469 15.5298 4.25433C16.5725 5.59397 17.1422 7.27078 17.1424 9.00082C17.1424 10.3207 17.5995 15.3005 18.8852 18.0003Z" fill="white"/>
</svg>
