<svg width="24" height="24" viewBox="0 0 24 24" fill="none" xmlns="http://www.w3.org/2000/svg">
<path fill-rule="evenodd" clip-rule="evenodd" d="M8.2332 5.67114C7.42017 6.68479 7 8.08547 7 9.54545C7 12.5173 8.36744 15.1737 9.8064 17.1359C10.5199 18.1088 11.2345 18.8885 11.7696 19.4236C11.8509 19.5049 11.9279 19.5804 12 19.6499C12.0721 19.5804 12.1491 19.5049 12.2304 19.4236C12.7655 18.8885 13.4801 18.1088 14.1936 17.1359C15.6326 15.1737 17 12.5173 17 9.54545C17 8.08548 16.5798 6.68479 15.7668 5.67114C14.9769 4.68636 13.7668 4 12 4C10.2332 4 9.02308 4.68636 8.2332 5.67114ZM12 21C11.3668 21.774 11.3665 21.7737 11.3662 21.7735L11.3637 21.7714L11.3584 21.7671L11.3415 21.753C11.3274 21.7412 11.3078 21.7247 11.283 21.7035C11.2333 21.6611 11.163 21.6 11.0748 21.521C10.8986 21.3631 10.6508 21.1332 10.3554 20.8378C9.76552 20.2479 8.98014 19.3912 8.19359 18.3186C6.63256 16.1899 5 13.1191 5 9.54545C5 7.73271 5.51733 5.86066 6.67305 4.41977C7.85192 2.95001 9.64176 2 12 2C14.3582 2 16.1481 2.95001 17.3269 4.41977C18.4827 5.86066 19 7.73271 19 9.54545C19 13.1191 17.3674 16.1899 15.8064 18.3186C15.0199 19.3912 14.2345 20.2479 13.6446 20.8378C13.3492 21.1332 13.1014 21.3631 12.9252 21.521C12.837 21.6 12.7667 21.6611 12.717 21.7035C12.6922 21.7247 12.6726 21.7412 12.6585 21.753L12.6416 21.7671L12.6363 21.7714L12.6345 21.7729C12.6342 21.7732 12.6332 21.774 12 21ZM12 21L12.6332 21.774C12.2649 22.0753 11.7346 22.0749 11.3662 21.7735L12 21Z" fill="black"/>
<path fill-rule="evenodd" clip-rule="evenodd" d="M12 8C11.4477 8 11 8.44772 11 9C11 9.55228 11.4477 10 12 10C12.5523 10 13 9.55228 13 9C13 8.44772 12.5523 8 12 8ZM9 9C9 7.34315 10.3431 6 12 6C13.6569 6 15 7.34315 15 9C15 10.6569 13.6569 12 12 12C10.3431 12 9 10.6569 9 9Z" fill="black"/>
</svg>
