<svg width="16" height="15" viewBox="0 0 16 15" fill="none" xmlns="http://www.w3.org/2000/svg">
<path d="M13 1.5C13 1.10218 13.158 0.720644 13.4393 0.43934C13.7206 0.158035 14.1022 0 14.5 0C14.8978 0 15.2794 0.158035 15.5607 0.43934C15.842 0.720644 16 1.10218 16 1.5V12.5C16 12.8978 15.842 13.2794 15.5607 13.5607C15.2794 13.842 14.8978 14 14.5 14C14.1022 14 13.7206 13.842 13.4393 13.5607C13.158 13.2794 13 12.8978 13 12.5V12.286C10.838 11.045 8.51 10.443 6.088 10.203L6.493 12.915C6.5202 13.0595 6.5152 13.2082 6.47837 13.3505C6.44154 13.4928 6.37378 13.6253 6.27992 13.7385C6.18605 13.8516 6.06839 13.9427 5.93532 14.0052C5.80224 14.0677 5.65702 14.1 5.51 14.1H4.962C4.76762 14.1 4.57746 14.0433 4.41478 13.9369C4.2521 13.8306 4.12395 13.6791 4.046 13.501L2.196 10.011C2.12867 10.0099 2.06133 10.0089 1.994 10.008C1.46436 10.0027 0.95812 9.78906 0.584905 9.41322C0.211691 9.03739 0.00155184 8.52966 0 8L0 6C0.00178478 5.47029 0.21157 4.96248 0.584163 4.58596C0.956756 4.20944 1.46234 3.99434 1.992 3.987C2.82003 3.97577 3.64781 3.95077 4.475 3.912C7.518 3.758 10.623 3.063 13 1.713V1.5ZM14 1.5V12.5C14 12.6326 14.0527 12.7598 14.1464 12.8536C14.2402 12.9473 14.3674 13 14.5 13C14.6326 13 14.7598 12.9473 14.8536 12.8536C14.9473 12.7598 15 12.6326 15 12.5V1.5C15 1.36739 14.9473 1.24021 14.8536 1.14645C14.7598 1.05268 14.6326 1 14.5 1C14.3674 1 14.2402 1.05268 14.1464 1.14645C14.0527 1.24021 14 1.36739 14 1.5ZM13 2.85C10.656 4.055 7.791 4.692 5 4.883V9.116C5.18 9.126 5.359 9.138 5.537 9.152C8.105 9.341 10.63 9.896 13 11.145V2.85ZM4 9.065V4.935C3.3362 4.95929 2.67216 4.97662 2.008 4.987C1.74077 4.99014 1.48545 5.09803 1.29695 5.28747C1.10844 5.47691 1.00182 5.73276 1 6V8C1 8.55 1.448 9.002 2.006 9.009C2.67093 9.01671 3.33569 9.03537 4 9.065V9.065ZM3.343 10.04L4.952 13.077L4.962 13.101H5.51L5.508 13.087L5.065 10.121C4.49137 10.0864 3.91732 10.0591 3.343 10.039V10.04Z" fill="black"/>
</svg>
