<svg width="30" height="30" viewBox="0 0 30 30" fill="none" xmlns="http://www.w3.org/2000/svg">
<path d="M2.8125 28.1249C2.56386 28.1249 2.3254 28.2236 2.14959 28.3994C1.97377 28.5753 1.875 28.8137 1.875 29.0624C1.875 29.311 1.97377 29.5495 2.14959 29.7253C2.3254 29.9011 2.56386 29.9999 2.8125 29.9999H27.1875C27.4361 29.9999 27.6746 29.9011 27.8504 29.7253C28.0262 29.5495 28.125 29.311 28.125 29.0624C28.125 28.8137 28.0262 28.5753 27.8504 28.3994C27.6746 28.2236 27.4361 28.1249 27.1875 28.1249H24.375V4.68736C24.375 3.94144 24.0787 3.22607 23.5512 2.69862C23.0238 2.17117 22.3084 1.87486 21.5625 1.87486H20.625V0.937358C20.625 0.803166 20.5962 0.670542 20.5405 0.54845C20.4848 0.426358 20.4035 0.317645 20.3022 0.229657C20.2009 0.141668 20.0819 0.0764571 19.9532 0.0384299C19.8245 0.000402747 19.6891 -0.00955387 19.5563 0.00923303L6.43125 1.88423C6.2076 1.91586 6.00288 2.02716 5.85475 2.19769C5.70662 2.36821 5.62503 2.58648 5.625 2.81236V28.1249H2.8125ZM20.625 3.74986H21.5625C21.8111 3.74986 22.0496 3.84863 22.2254 4.02445C22.4012 4.20026 22.5 4.43872 22.5 4.68736V28.1249H20.625V3.74986ZM15.9375 18.7499C15.42 18.7499 15 17.9099 15 16.8749C15 15.8399 15.42 14.9999 15.9375 14.9999C16.455 14.9999 16.875 15.8399 16.875 16.8749C16.875 17.9099 16.455 18.7499 15.9375 18.7499Z" fill="white"/>
</svg>
