<svg width="13" height="10" viewBox="0 0 13 10" fill="none" xmlns="http://www.w3.org/2000/svg">
<path fill-rule="evenodd" clip-rule="evenodd" d="M1.44176 4.70564C1.37187 4.89027 1.37403 5.09263 1.4472 5.27598C1.94141 6.51431 3.40536 8.57143 6.50165 8.57143C9.6791 8.57143 11.1237 6.59392 11.5812 5.27121C11.6403 5.10029 11.6386 4.91484 11.5762 4.74507C11.1079 3.46946 9.65148 1.42857 6.50165 1.42857C3.38407 1.42857 1.92539 3.42787 1.44176 4.70564ZM0.0410713 4.82676C0.422669 3.14421 2.26042 0 6.50165 0C10.7429 0 12.5806 3.14421 12.9622 4.82676C12.9871 4.93651 12.988 5.05046 12.965 5.16061C12.5821 6.98938 10.7296 10 6.50165 10C2.23809 10 0.423816 6.72083 0.0445566 5.18794C0.0152583 5.06952 0.0140899 4.94573 0.0410713 4.82676Z" fill="black"/>
<path fill-rule="evenodd" clip-rule="evenodd" d="M6.50165 4.28571C6.14377 4.28571 5.85365 4.60551 5.85365 5C5.85365 5.39449 6.14377 5.71429 6.50165 5.71429C6.85952 5.71429 7.14964 5.39449 7.14964 5C7.14964 4.60551 6.85952 4.28571 6.50165 4.28571ZM4.55767 5C4.55767 3.81653 5.42802 2.85714 6.50165 2.85714C7.57528 2.85714 8.44562 3.81653 8.44562 5C8.44562 6.18347 7.57528 7.14286 6.50165 7.14286C5.42802 7.14286 4.55767 6.18347 4.55767 5Z" fill="black"/>
</svg>
