<svg width="20" height="24" viewBox="0 0 20 24" fill="none" xmlns="http://www.w3.org/2000/svg">
<path d="M17.4995 1.56525C17.831 1.56525 18.149 1.73016 18.3834 2.0237C18.6178 2.31724 18.7495 2.71537 18.7495 3.1305V15.6525C18.7495 16.0676 18.6178 16.4658 18.3834 16.7593C18.149 17.0529 17.831 17.2178 17.4995 17.2178H14.3745C13.9864 17.2178 13.6036 17.3309 13.2565 17.5483C12.9093 17.7656 12.6074 18.0812 12.3745 18.47L9.99951 22.4347L7.62451 18.47C7.39164 18.0812 7.08968 17.7656 6.74255 17.5483C6.39541 17.3309 6.01262 17.2178 5.62451 17.2178H2.49951C2.16799 17.2178 1.85005 17.0529 1.61563 16.7593C1.38121 16.4658 1.24951 16.0676 1.24951 15.6525V3.1305C1.24951 2.71537 1.38121 2.31724 1.61563 2.0237C1.85005 1.73016 2.16799 1.56525 2.49951 1.56525H17.4995ZM2.49951 0C1.83647 0 1.20059 0.32982 0.731745 0.916903C0.262904 1.50399 -0.000488281 2.30024 -0.000488281 3.1305L-0.000488281 15.6525C-0.000488281 16.4828 0.262904 17.279 0.731745 17.8661C1.20059 18.4532 1.83647 18.783 2.49951 18.783H5.62451C5.81857 18.783 6.00996 18.8396 6.18353 18.9483C6.3571 19.0569 6.50808 19.2147 6.62451 19.4091L8.99951 23.3739C9.11595 23.5683 9.26693 23.7261 9.44049 23.8348C9.61406 23.9434 9.80546 24 9.99951 24C10.1936 24 10.385 23.9434 10.5585 23.8348C10.7321 23.7261 10.8831 23.5683 10.9995 23.3739L13.3745 19.4091C13.4909 19.2147 13.6419 19.0569 13.8155 18.9483C13.9891 18.8396 14.1805 18.783 14.3745 18.783H17.4995C18.1626 18.783 18.7984 18.4532 19.2673 17.8661C19.7361 17.279 19.9995 16.4828 19.9995 15.6525V3.1305C19.9995 2.30024 19.7361 1.50399 19.2673 0.916903C18.7984 0.32982 18.1626 0 17.4995 0L2.49951 0Z" fill="white"/>
<path d="M3.74951 5.47891C3.74951 5.27135 3.81536 5.07229 3.93257 4.92551C4.04978 4.77874 4.20875 4.69629 4.37451 4.69629H15.6245C15.7903 4.69629 15.9492 4.77874 16.0665 4.92551C16.1837 5.07229 16.2495 5.27135 16.2495 5.47891C16.2495 5.68648 16.1837 5.88554 16.0665 6.03231C15.9492 6.17909 15.7903 6.26154 15.6245 6.26154H4.37451C4.20875 6.26154 4.04978 6.17909 3.93257 6.03231C3.81536 5.88554 3.74951 5.68648 3.74951 5.47891ZM3.74951 9.39204C3.74951 9.18448 3.81536 8.98541 3.93257 8.83864C4.04978 8.69187 4.20875 8.60942 4.37451 8.60942H15.6245C15.7903 8.60942 15.9492 8.69187 16.0665 8.83864C16.1837 8.98541 16.2495 9.18448 16.2495 9.39204C16.2495 9.59961 16.1837 9.79867 16.0665 9.94544C15.9492 10.0922 15.7903 10.1747 15.6245 10.1747H4.37451C4.20875 10.1747 4.04978 10.0922 3.93257 9.94544C3.81536 9.79867 3.74951 9.59961 3.74951 9.39204ZM3.74951 13.3052C3.74951 13.0976 3.81536 12.8985 3.93257 12.7518C4.04978 12.605 4.20875 12.5225 4.37451 12.5225H10.6245C10.7903 12.5225 10.9492 12.605 11.0665 12.7518C11.1837 12.8985 11.2495 13.0976 11.2495 13.3052C11.2495 13.5127 11.1837 13.7118 11.0665 13.8586C10.9492 14.0053 10.7903 14.0878 10.6245 14.0878H4.37451C4.20875 14.0878 4.04978 14.0053 3.93257 13.8586C3.81536 13.7118 3.74951 13.5127 3.74951 13.3052Z" fill="white"/>
</svg>
