<svg width="20" height="24" viewBox="0 0 20 24" fill="none" xmlns="http://www.w3.org/2000/svg">
<path fill-rule="evenodd" clip-rule="evenodd" d="M13.5714 5.25C13.5714 4.25544 13.1952 3.30161 12.5254 2.59835C11.8556 1.89509 10.9472 1.5 10 1.5C9.0528 1.5 8.14439 1.89509 7.47462 2.59835C6.80485 3.30161 6.42857 4.25544 6.42857 5.25V6H13.5714V5.25ZM15 5.25V6H20V21C20 21.7956 19.699 22.5587 19.1632 23.1213C18.6273 23.6839 17.9006 24 17.1429 24H2.85714C2.09938 24 1.37266 23.6839 0.836838 23.1213C0.30102 22.5587 0 21.7956 0 21V6H5V5.25C5 3.85761 5.52678 2.52226 6.46447 1.53769C7.40215 0.553123 8.67392 0 10 0C11.3261 0 12.5979 0.553123 13.5355 1.53769C14.4732 2.52226 15 3.85761 15 5.25ZM18.5714 21V7.5H1.42857V21C1.42857 21.3978 1.57908 21.7794 1.84699 22.0607C2.1149 22.342 2.47826 22.5 2.85714 22.5H17.1429C17.5217 22.5 17.8851 22.342 18.153 22.0607C18.4209 21.7794 18.5714 21.3978 18.5714 21ZM10 11.9895C12.3771 9.423 18.3214 13.914 10 19.6875C1.67857 13.9125 7.62286 9.423 10 11.9895Z" fill="white"/>
</svg>
