<svg width="12" height="12" viewBox="0 0 12 12" fill="none" xmlns="http://www.w3.org/2000/svg">
<path fill-rule="evenodd" clip-rule="evenodd" d="M4.41081 1.2C2.58379 1.2 1.1027 2.81177 1.1027 4.8C1.1027 6.78822 2.58379 8.4 4.41081 8.4C6.23783 8.4 7.71892 6.78822 7.71892 4.8C7.71892 2.81177 6.23783 1.2 4.41081 1.2ZM0 4.8C0 2.14903 1.97479 0 4.41081 0C6.84683 0 8.82162 2.14903 8.82162 4.8C8.82162 7.45096 6.84683 9.6 4.41081 9.6C1.97479 9.6 0 7.45096 0 4.8Z" fill="black"/>
<path fill-rule="evenodd" clip-rule="evenodd" d="M6.7777 7.37573C6.99302 7.14142 7.34212 7.14142 7.55743 7.37573L10.8655 10.9757C11.0809 11.21 11.0809 11.5899 10.8655 11.8243C10.6502 12.0586 10.3011 12.0586 10.0858 11.8243L6.7777 8.22426C6.56239 7.98995 6.56239 7.61005 6.7777 7.37573Z" fill="black"/>
</svg>
