<svg width="28" height="28" viewBox="0 0 28 28" fill="none" xmlns="http://www.w3.org/2000/svg">
<path d="M14 2.3335C7.55654 2.3335 2.33337 7.55666 2.33337 14.0002C2.33337 20.4437 7.55654 25.6668 14 25.6668C20.4435 25.6668 25.6667 20.4437 25.6667 14.0002C25.6667 7.55666 20.4435 2.3335 14 2.3335ZM20.6582 11.325L12.4915 19.4917C12.264 19.7192 11.9654 19.8335 11.6667 19.8335C11.368 19.8335 11.0694 19.7192 10.8419 19.4917L7.34187 15.9917C6.88571 15.5355 6.88571 14.7982 7.34187 14.342C7.79804 13.8858 8.53537 13.8858 8.99154 14.342L11.6667 17.0172L19.0085 9.67533C19.4647 9.21916 20.202 9.21916 20.6582 9.67533C21.1144 10.1315 21.1144 10.8688 20.6582 11.325Z" fill="#EB4C57"/>
<circle cx="14" cy="14" r="12" fill="white"/>
<path d="M8.25176 8.25176C8.33137 8.17196 8.42593 8.10864 8.53004 8.06544C8.63416 8.02224 8.74577 8 8.85849 8C8.97121 8 9.08282 8.02224 9.18693 8.06544C9.29104 8.10864 9.38561 8.17196 9.46521 8.25176L14.0002 12.7885L18.5352 8.25176C18.6149 8.17209 18.7095 8.10888 18.8136 8.06576C18.9177 8.02264 19.0293 8.00045 19.142 8.00045C19.2546 8.00045 19.3662 8.02264 19.4703 8.06576C19.5744 8.10888 19.669 8.17209 19.7487 8.25176C19.8284 8.33144 19.8916 8.42603 19.9347 8.53013C19.9778 8.63423 20 8.74581 20 8.85849C20 8.97117 19.9778 9.08274 19.9347 9.18685C19.8916 9.29095 19.8284 9.38554 19.7487 9.46521L15.212 14.0002L19.7487 18.5352C19.8284 18.6149 19.8916 18.7095 19.9347 18.8136C19.9778 18.9177 20 19.0293 20 19.142C20 19.2546 19.9778 19.3662 19.9347 19.4703C19.8916 19.5744 19.8284 19.669 19.7487 19.7487C19.669 19.8284 19.5744 19.8916 19.4703 19.9347C19.3662 19.9778 19.2546 20 19.142 20C19.0293 20 18.9177 19.9778 18.8136 19.9347C18.7095 19.8916 18.6149 19.8284 18.5352 19.7487L14.0002 15.212L9.46521 19.7487C9.38554 19.8284 9.29095 19.8916 9.18685 19.9347C9.08274 19.9778 8.97117 20 8.85849 20C8.74581 20 8.63423 19.9778 8.53013 19.9347C8.42603 19.8916 8.33144 19.8284 8.25176 19.7487C8.17209 19.669 8.10888 19.5744 8.06576 19.4703C8.02264 19.3662 8.00045 19.2546 8.00045 19.142C8.00045 19.0293 8.02264 18.9177 8.06576 18.8136C8.10888 18.7095 8.17209 18.6149 8.25176 18.5352L12.7885 14.0002L8.25176 9.46521C8.17196 9.38561 8.10864 9.29104 8.06544 9.18693C8.02224 9.08282 8 8.97121 8 8.85849C8 8.74577 8.02224 8.63416 8.06544 8.53004C8.10864 8.42593 8.17196 8.33137 8.25176 8.25176Z" fill="#FF0404"/>
</svg>
