<svg width="16" height="16" viewBox="0 0 16 16" fill="none" xmlns="http://www.w3.org/2000/svg">
<g clip-path="url(#clip0_1168_6674)">
<path d="M15.8539 0.145173C15.9232 0.214505 15.9705 0.302647 15.99 0.398651C16.0096 0.494654 16.0005 0.594287 15.9639 0.685173L10.1449 15.2322C10.0937 15.3603 10.008 15.4718 9.89746 15.5543C9.78691 15.6369 9.65571 15.6874 9.51832 15.7002C9.38092 15.713 9.24265 15.6877 9.11873 15.627C8.9948 15.5663 8.89003 15.4726 8.81593 15.3562L5.63793 10.3612L0.642932 7.18317C0.52625 7.10916 0.432283 7.00434 0.371402 6.8803C0.31052 6.75626 0.285089 6.61781 0.297917 6.48023C0.310744 6.34264 0.36133 6.21128 0.444093 6.10063C0.526855 5.98998 0.638578 5.90434 0.766932 5.85317L15.3139 0.0361732C15.4048 -0.000414535 15.5045 -0.00949426 15.6005 0.0100619C15.6965 0.0296181 15.7846 0.0769483 15.8539 0.146173V0.145173ZM6.63593 10.0692L9.39693 14.4072L14.1299 2.57517L6.63593 10.0692ZM13.4229 1.86817L1.59093 6.60117L5.92993 9.36117L13.4229 1.86817Z" fill="white"/>
</g>
<defs>
<clipPath id="clip0_1168_6674">
<rect width="16" height="16" fill="white"/>
</clipPath>
</defs>
</svg>
