<svg width="109" height="109" viewBox="0 0 109 109" fill="none" xmlns="http://www.w3.org/2000/svg">
<g filter="url(#filter0_d_773_6752)">
<circle cx="54.5" cy="50.5" r="49" fill="#369F64" stroke="#2A6B46" stroke-width="3"/>
<path d="M57.6853 11.0328C52.8458 9.93596 48.3504 13.254 48.0264 17.5495C47.6619 22.3727 46.8621 26.8013 45.8597 29.4355C45.2269 31.0877 43.4349 34.0844 40.5949 36.9573C37.7752 39.8163 34.105 42.3634 29.8071 43.4281C26.4052 44.2679 22.9375 46.9388 22.9375 50.8396V69.2011C22.9375 73.079 26.39 75.9197 30.2678 76.2914C35.6845 76.8146 38.1852 78.196 40.7367 79.6094L40.9797 79.7471C42.3566 80.5043 43.9057 81.3442 45.8901 81.9683C47.8999 82.5924 50.2488 82.9641 53.3115 82.9641H71.0297C75.7731 82.9641 79.1243 80.7751 80.8202 78.0812C81.6398 76.81 82.0828 75.3682 82.106 73.8959C82.106 73.1983 81.9896 72.464 81.7162 71.7665C82.7338 70.5595 83.6399 69.1139 84.1866 67.6316C84.7435 66.1171 85.0574 64.1346 84.2069 62.3586C84.5562 61.762 84.8144 61.1241 85.0118 60.5091C85.4016 59.27 85.5839 57.9024 85.5839 56.5762C85.5839 55.2545 85.4016 53.8915 85.0118 52.6478C84.8347 52.076 84.6009 51.52 84.3132 50.9865C85.1996 49.8432 85.7699 48.5235 85.9761 47.1386C86.1823 45.7537 86.0182 44.3442 85.4978 43.0288C84.455 40.312 82.0453 37.9807 79.423 37.1913C75.1352 35.8972 70.2956 35.9247 66.6862 36.223C65.9368 36.2841 65.1891 36.3606 64.4436 36.4524C66.1997 29.6346 66.092 22.5311 64.1297 15.7597C63.7883 14.6747 63.1334 13.6922 62.2327 12.9136C61.332 12.135 60.2183 11.5887 59.0066 11.3311L57.6853 11.0328ZM71.0297 78.3795H53.3115C50.7297 78.3795 48.9427 78.0629 47.5404 77.6269C46.1179 77.1817 44.9789 76.5805 43.6121 75.8233L43.4096 75.7132C40.6 74.1574 37.3449 72.3585 30.8044 71.7297C29.1186 71.5645 27.9998 70.3989 27.9998 69.2057V50.8396C27.9998 49.674 29.1439 48.3477 31.1385 47.8566C36.6817 46.4799 41.1467 43.2858 44.3714 40.0183C47.586 36.7599 49.7577 33.2492 50.6386 30.9408C51.8687 27.7283 52.6989 22.8271 53.0786 17.8615C53.2052 16.2002 54.9011 15.1355 56.4552 15.4843L57.7815 15.7872C58.5915 15.9708 59.0876 16.4435 59.2395 16.9575C61.3069 24.0984 61.0519 31.6289 58.5054 38.6415C58.3613 39.0315 58.3355 39.4495 58.4306 39.8517C58.5258 40.2539 58.7384 40.6255 59.0464 40.9276C59.3543 41.2297 59.7461 41.4512 60.1808 41.569C60.6156 41.6868 61.0773 41.6964 61.5175 41.597L61.5327 41.5924L61.6036 41.5786L61.8972 41.5144C63.6283 41.1811 65.3795 40.9405 67.1418 40.7938C70.4981 40.5185 74.5176 40.546 77.8233 41.5465C78.7092 41.8127 80.1013 42.9232 80.7088 44.5295C81.2505 45.9429 81.1493 47.6042 79.3622 49.2196L77.5752 50.8396L79.3622 52.4642C79.5799 52.6616 79.8938 53.1113 80.1418 53.9098C80.3848 54.6762 80.5215 55.6078 80.5215 56.5762C80.5215 57.5491 80.3848 58.4761 80.1418 59.2471C79.8887 60.0456 79.5799 60.4953 79.3622 60.6927L77.5752 62.3127L79.3622 63.9373C79.6002 64.153 79.914 64.7495 79.3876 66.1768C78.839 67.5608 77.9669 68.821 76.8311 69.8711L75.0441 71.4911L76.8311 73.1157C76.8615 73.1386 77.0386 73.3451 77.0386 73.8959C77.0162 74.569 76.8054 75.2259 76.4261 75.805C75.5908 77.1267 73.8797 78.3749 71.0297 78.3749V78.3795Z" fill="white"/>
</g>
<defs>
<filter id="filter0_d_773_6752" x="0" y="0" width="109" height="109" filterUnits="userSpaceOnUse" color-interpolation-filters="sRGB">
<feFlood flood-opacity="0" result="BackgroundImageFix"/>
<feColorMatrix in="SourceAlpha" type="matrix" values="0 0 0 0 0 0 0 0 0 0 0 0 0 0 0 0 0 0 127 0" result="hardAlpha"/>
<feOffset dy="4"/>
<feGaussianBlur stdDeviation="2"/>
<feComposite in2="hardAlpha" operator="out"/>
<feColorMatrix type="matrix" values="0 0 0 0 0 0 0 0 0 0 0 0 0 0 0 0 0 0 0.25 0"/>
<feBlend mode="normal" in2="BackgroundImageFix" result="effect1_dropShadow_773_6752"/>
<feBlend mode="normal" in="SourceGraphic" in2="effect1_dropShadow_773_6752" result="shape"/>
</filter>
</defs>
</svg>
